<?xml version="1.0" standalone="no"?>
<!DOCTYPE svg PUBLIC "-//W3C//DTD SVG 20010904//EN"
 "http://www.w3.org/TR/2001/REC-SVG-20010904/DTD/svg10.dtd">
<svg
    xmlns="http://www.w3.org/2000/svg"
    width="80px" 
    height="80px" 
    viewBox="0 0 3043.000000 3115.000000"
>
<g transform="translate(0.000000,2115.000000) scale(0.100000,-0.100000)"
fill="gray" stroke="none">
<path d="M14400 21140 c-929 -52 -1751 -569 -2135 -1345 -452 -914 -193 -2005
633 -2663 56 -45 103 -84 105 -86 1 -3 -45 -43 -103 -89 -722 -575 -1021
-1486 -766 -2334 263 -875 1082 -1530 2070 -1657 417 -54 842 -12 1236 123 63
21 123 42 133 46 16 7 17 -29 17 -659 l0 -666 645 0 645 0 0 666 c0 630 1 666
18 659 9 -4 69 -25 132 -46 790 -270 1676 -161 2359 291 1019 673 1335 1947
731 2950 -136 226 -337 456 -548 625 -57 46 -103 86 -103 89 0 4 47 43 103 88
465 370 765 895 839 1468 17 137 15 402 -5 543 -66 465 -270 875 -611 1226
-298 306 -638 515 -1059 650 -705 225 -1523 142 -2153 -219 -102 -59 -253
-160 -317 -213 l-30 -24 -85 64 c-379 286 -908 482 -1371 508 -215 12 -248 12
-380 5z"/>
<path d="M2311 20949 c-340 -36 -755 -186 -1041 -377 -397 -265 -723 -645
-950 -1107 -223 -453 -320 -874 -320 -1390 0 -380 53 -715 166 -1053 142 -423
452 -878 1078 -1582 304 -342 1282 -1301 1789 -1755 203 -182 403 -361 445
-399 256 -229 992 -853 1145 -970 67 -51 80 -58 100 -49 58 27 338 259 821
682 1596 1397 2417 2203 3058 3004 471 589 647 935 752 1476 81 414 81 879 0
1278 -72 356 -223 738 -408 1031 -153 243 -375 498 -586 674 -344 288 -755
466 -1220 529 -138 19 -439 16 -585 -5 -731 -108 -1334 -523 -1764 -1219 -41
-64 -77 -120 -81 -122 -5 -3 -24 20 -42 50 -138 233 -261 394 -437 577 -205
213 -412 363 -686 499 -392 193 -816 271 -1234 228z"/>
<path d="M4087 9403 c-3196 -3459 -4007 -4340 -4005 -4350 2 -7 1051 -1147
2332 -2534 l2330 -2521 46 48 c381 405 4615 5001 4615 5010 0 11 -4650 5054
-4661 5054 -2 0 -298 -318 -657 -707z"/>
<path d="M15829 9978 c-264 -212 -847 -713 -1189 -1023 -129 -116 -327 -295
-440 -396 -209 -187 -894 -852 -1165 -1130 -606 -623 -1073 -1216 -1274 -1619
-253 -508 -342 -1180 -240 -1800 115 -696 488 -1344 1014 -1761 318 -253 701
-413 1118 -469 114 -15 388 -12 519 5 400 53 784 222 1125 495 l88 71 3 -1175
2 -1176 565 0 565 0 0 1176 0 1176 58 -49 c596 -513 1404 -666 2153 -408 737
254 1340 942 1585 1808 160 566 140 1254 -52 1827 -47 140 -174 397 -269 545
-235 366 -723 948 -1230 1464 -257 262 -885 857 -1300 1231 -842 759 -1473
1300 -1515 1300 -4 0 -58 -41 -121 -92z"/>
</g>
</svg>
